<svg width="48" height="48" viewBox="0 0 48 48" fill="none" xmlns="http://www.w3.org/2000/svg">
<rect width="48" height="48" rx="6" fill="#E5ECE9"/>
<path d="M10.5191 37V9H17.2741C19.8875 9 21.7716 9.53083 22.9266 10.5925C24.0933 11.6425 24.7175 13.3867 24.7991 15.825C24.8341 16.805 24.8516 17.715 24.8516 18.555C24.8516 19.395 24.8341 20.305 24.7991 21.285C24.7175 23.7117 24.0933 25.4558 22.9266 26.5175C21.7716 27.5792 19.8875 28.11 17.2741 28.11H15.7691V37H10.5191ZM15.7691 23.49H17.2741C18.0091 23.49 18.5633 23.3208 18.9366 22.9825C19.31 22.6442 19.5141 22.1717 19.5491 21.565C19.5841 20.9933 19.6075 20.3517 19.6191 19.64C19.6308 18.9167 19.6308 18.1992 19.6191 17.4875C19.6075 16.7642 19.5841 16.1167 19.5491 15.545C19.5141 14.9267 19.31 14.4542 18.9366 14.1275C18.5633 13.7892 18.0091 13.62 17.2741 13.62H15.7691V23.49Z" fill="#312F2F"/>
<path d="M26.9938 37V9H39.1038V13.62H32.2438V20.445H38.7538V25.065H32.2438V32.38H39.1038V37H26.9938Z" fill="#AA4586"/>
</svg>
