<svg width="36" height="28" viewBox="0 0 36 28" fill="none" xmlns="http://www.w3.org/2000/svg">
<path d="M33.6674 14H24.0172L20.8004 18.6875H14.367L11.1502 14H1.5M33.6674 14V23.375C33.6674 24.2038 33.3285 24.9987 32.7252 25.5847C32.122 26.1708 31.3038 26.5 30.4507 26.5H4.71674C3.86361 26.5 3.04542 26.1708 2.44216 25.5847C1.83891 24.9987 1.5 24.2038 1.5 23.375V14M33.6674 14L28.1185 3.23438C27.8522 2.71373 27.4417 2.27558 26.9331 1.96919C26.4245 1.66279 25.838 1.50031 25.2395 1.5H9.92786C9.32941 1.50031 8.74292 1.66279 8.23432 1.96919C7.72572 2.27558 7.31519 2.71373 7.04888 3.23438L1.5 14" stroke="#E5ECE9" stroke-width="3" stroke-linecap="round" stroke-linejoin="round"/>
</svg>
