<svg width="33" height="32" viewBox="0 0 33 32" fill="none" xmlns="http://www.w3.org/2000/svg">
<g clip-path="url(#clip0_2_46)">
<path d="M16.0837 19.9999C18.3044 19.9999 20.1047 18.2091 20.1047 15.9999C20.1047 13.7908 18.3044 11.9999 16.0837 11.9999C13.863 11.9999 12.0628 13.7908 12.0628 15.9999C12.0628 18.2091 13.863 19.9999 16.0837 19.9999Z" stroke="#E5ECE9" stroke-width="3" stroke-linecap="round" stroke-linejoin="round"/>
<path d="M26.002 19.9999C25.8236 20.4021 25.7704 20.8482 25.8492 21.2807C25.928 21.7132 26.1353 22.1123 26.4443 22.4266L26.5247 22.5066C26.774 22.7542 26.9717 23.0483 27.1066 23.3721C27.2415 23.6958 27.3109 24.0428 27.3109 24.3933C27.3109 24.7437 27.2415 25.0907 27.1066 25.4144C26.9717 25.7382 26.774 26.0323 26.5247 26.2799C26.2758 26.5279 25.9801 26.7245 25.6547 26.8587C25.3293 26.9929 24.9805 27.062 24.6282 27.062C24.2759 27.062 23.9271 26.9929 23.6017 26.8587C23.2763 26.7245 22.9806 26.5279 22.7317 26.2799L22.6512 26.1999C22.3354 25.8925 21.9342 25.6863 21.4994 25.6079C21.0646 25.5295 20.6161 25.5824 20.2119 25.7599C19.8155 25.9289 19.4774 26.2096 19.2392 26.5673C19.0011 26.925 18.8733 27.3442 18.8716 27.7733V27.9999C18.8716 28.7072 18.5891 29.3854 18.0864 29.8855C17.5837 30.3856 16.9019 30.6666 16.191 30.6666C15.48 30.6666 14.7982 30.3856 14.2955 29.8855C13.7928 29.3854 13.5103 28.7072 13.5103 27.9999V27.8799C13.5 27.4386 13.3564 27.0106 13.0982 26.6515C12.84 26.2925 12.4793 26.019 12.0628 25.8666C11.6585 25.6891 11.2101 25.6362 10.7753 25.7146C10.3405 25.793 9.93932 25.9992 9.62344 26.3066L9.54302 26.3866C9.29406 26.6345 8.99842 26.8312 8.673 26.9654C8.34758 27.0996 7.99876 27.1687 7.64648 27.1687C7.29421 27.1687 6.94539 27.0996 6.61997 26.9654C6.29455 26.8312 5.9989 26.6345 5.74995 26.3866C5.50071 26.1389 5.30299 25.8448 5.16809 25.5211C5.03319 25.1974 4.96376 24.8504 4.96376 24.4999C4.96376 24.1495 5.03319 23.8025 5.16809 23.4787C5.30299 23.155 5.50071 22.8609 5.74995 22.6133L5.83037 22.5333C6.13936 22.219 6.34663 21.8199 6.42547 21.3874C6.5043 20.9548 6.45108 20.5087 6.27267 20.1066C6.10277 19.7122 5.82066 19.3759 5.46106 19.139C5.10147 18.9021 4.68009 18.775 4.2488 18.7733H4.02095C3.31001 18.7733 2.62818 18.4923 2.12547 17.9922C1.62275 17.4921 1.34033 16.8138 1.34033 16.1066C1.34033 15.3993 1.62275 14.7211 2.12547 14.221C2.62818 13.7209 3.31001 13.4399 4.02095 13.4399H4.14158C4.58521 13.4296 5.01546 13.2867 5.3764 13.0299C5.73734 12.7731 6.01227 12.4142 6.16544 11.9999C6.34386 11.5978 6.39708 11.1517 6.31824 10.7191C6.23941 10.2866 6.03213 9.88749 5.72314 9.57325L5.64272 9.49325C5.39349 9.24559 5.19577 8.95149 5.06087 8.62776C4.92597 8.30403 4.85653 7.95703 4.85653 7.60659C4.85653 7.25614 4.92597 6.90914 5.06087 6.58541C5.19577 6.26168 5.39349 5.96758 5.64272 5.71992C5.89168 5.47198 6.18732 5.27529 6.51274 5.14109C6.83816 5.00689 7.18698 4.93782 7.53926 4.93782C7.89153 4.93782 8.24035 5.00689 8.56578 5.14109C8.8912 5.27529 9.18684 5.47198 9.4358 5.71992L9.51621 5.79992C9.8321 6.1073 10.2333 6.3135 10.6681 6.39192C11.1029 6.47035 11.5513 6.41741 11.9556 6.23992H12.0628C12.4592 6.0709 12.7973 5.79026 13.0355 5.43254C13.2736 5.07482 13.4014 4.65563 13.4031 4.22659V3.99992C13.4031 3.29267 13.6855 2.6144 14.1882 2.1143C14.691 1.6142 15.3728 1.33325 16.0837 1.33325C16.7947 1.33325 17.4765 1.6142 17.9792 2.1143C18.4819 2.6144 18.7643 3.29267 18.7643 3.99992V4.11992C18.7661 4.54897 18.8939 4.96815 19.132 5.32587C19.3701 5.68359 19.7082 5.96424 20.1047 6.13325C20.5089 6.31074 20.9573 6.36368 21.3921 6.28526C21.8269 6.20683 22.2281 6.00063 22.544 5.69325L22.6244 5.61325C22.8734 5.36531 23.169 5.16862 23.4945 5.03443C23.8199 4.90023 24.1687 4.83115 24.521 4.83115C24.8732 4.83115 25.2221 4.90023 25.5475 5.03443C25.8729 5.16862 26.1685 5.36531 26.4175 5.61325C26.6667 5.86091 26.8645 6.15502 26.9994 6.47874C27.1343 6.80247 27.2037 7.14948 27.2037 7.49992C27.2037 7.85036 27.1343 8.19736 26.9994 8.52109C26.8645 8.84482 26.6667 9.13892 26.4175 9.38659L26.3371 9.46659C26.0281 9.78082 25.8208 10.1799 25.742 10.6125C25.6631 11.045 25.7164 11.4911 25.8948 11.8933V11.9999C26.0647 12.3943 26.3468 12.7306 26.7064 12.9675C27.066 13.2044 27.4874 13.3315 27.9187 13.3333H28.1465C28.8574 13.3333 29.5393 13.6142 30.042 14.1143C30.5447 14.6144 30.8271 15.2927 30.8271 15.9999C30.8271 16.7072 30.5447 17.3854 30.042 17.8855C29.5393 18.3856 28.8574 18.6666 28.1465 18.6666H28.0259C27.5946 18.6683 27.1732 18.7954 26.8136 19.0323C26.454 19.2692 26.1719 19.6056 26.002 19.9999Z" stroke="#E5ECE9" stroke-width="3" stroke-linecap="round" stroke-linejoin="round"/>
</g>
<defs>
<clipPath id="clip0_2_46">
<rect width="32.1674" height="32" fill="white"/>
</clipPath>
</defs>
</svg>
