<svg width="297" height="101" viewBox="0 0 297 101" fill="none" xmlns="http://www.w3.org/2000/svg">
<path d="M6.21378e-06 80V-1.19209e-06H15.75C21.7167 -1.19209e-06 26.0333 1.25 28.7 3.75C31.4 6.25 32.85 10.4 33.05 16.2C33.1833 19.8333 33.25 23.1333 33.25 26.1C33.25 29.0667 33.1833 32.1833 33.05 35.45C32.85 41.2167 31.4 45.3667 28.7 47.9C26.0333 50.4 21.7 51.65 15.7 51.65H10.8V80H6.21378e-06ZM10.8 42.05H15.7C17.8667 42.05 19.4667 41.55 20.5 40.55C21.5667 39.5167 22.15 38 22.25 36C22.35 33.8667 22.4167 31.6333 22.45 29.3C22.4833 26.9667 22.4833 24.65 22.45 22.35C22.4167 20.0167 22.35 17.7833 22.25 15.65C22.15 13.6167 21.5833 12.1 20.55 11.1C19.5167 10.1 17.9167 9.59999 15.75 9.59999H10.8V42.05ZM50.2938 80.7C46.4604 80.7 43.6271 79.7 41.7938 77.7C39.9938 75.6667 38.9104 72.3833 38.5438 67.85C38.5104 67.1167 38.4771 66.3167 38.4438 65.45C38.4438 64.5833 38.4604 63.8 38.4938 63.1C38.6938 60.5667 39.2104 58.35 40.0438 56.45C40.9104 54.55 42.2438 52.85 44.0438 51.35C45.8438 49.85 48.2604 48.4167 51.2938 47.05C52.8938 46.3167 54.4938 45.65 56.0938 45.05C57.7271 44.4167 59.3771 43.8333 61.0438 43.3V33.05C61.0438 31.15 60.6771 29.7333 59.9438 28.8C59.2104 27.8667 57.8104 27.4 55.7438 27.4C53.9771 27.4 52.6938 27.8 51.8938 28.6C51.1271 29.3667 50.6938 30.7333 50.5938 32.7C50.5604 33.3333 50.5271 34.2167 50.4938 35.35C50.4938 36.4833 50.4938 37.65 50.4938 38.85C50.5271 40.0167 50.5604 40.9833 50.5938 41.75H40.0938C40.0604 40.9167 40.0271 39.7 39.9938 38.1C39.9604 36.5 39.9604 35.0833 39.9938 33.85C40.1271 30.4167 40.7271 27.6167 41.7938 25.45C42.8604 23.2833 44.5438 21.7 46.8438 20.7C49.1438 19.6667 52.2104 19.15 56.0438 19.15C60.0438 19.15 63.1771 19.7167 65.4438 20.85C67.7438 21.95 69.3771 23.7 70.3438 26.1C71.3104 28.5 71.7938 31.6333 71.7938 35.5L71.7438 80H60.9438V74.05H59.4438C58.4771 76.2833 57.3104 77.95 55.9438 79.05C54.6104 80.15 52.7271 80.7 50.2938 80.7ZM54.5438 72.8C56.0438 72.8 57.3271 72.3667 58.3938 71.5C59.4938 70.6333 60.3604 69.4333 60.9938 67.9V50.8C59.8271 51.1667 58.6604 51.6 57.4938 52.1C56.3271 52.5667 55.1438 53.2 53.9438 54C52.1104 55.1 50.8771 56.4167 50.2438 57.95C49.6438 59.45 49.2938 61.1667 49.1938 63.1C49.1604 63.7333 49.1438 64.3833 49.1438 65.05C49.1438 65.7167 49.1604 66.3833 49.1938 67.05C49.3604 68.9167 49.8938 70.35 50.7938 71.35C51.7271 72.3167 52.9771 72.8 54.5438 72.8ZM81.107 80V20H91.907V26.6H93.907C94.3404 24.0333 95.207 22.25 96.507 21.25C97.8404 20.25 99.5904 19.75 101.757 19.75C102.457 19.75 103.14 19.7667 103.807 19.8C104.507 19.8333 105.057 19.8667 105.457 19.9V28.3H101.857C98.557 28.3 96.1737 28.85 94.707 29.95C93.2737 31.05 92.3404 32.6833 91.907 34.85V80H81.107ZM110.99 80V-1.19209e-06H121.09V18.35L119.89 44.95H121.74L125.99 32.95L131.54 20H142.74L131.54 43.65L144.89 80H133.79L124.74 54.7L121.34 60.95V80H110.99Z" fill="#312F2F"/>
<path d="M149.609 80V-1.19209e-06H178.159V9.59999H160.409V34.7H177.159V44.3H160.409V70.4H178.159V80H149.609ZM195.509 80.7C191.675 80.7 188.842 79.7 187.009 77.7C185.209 75.6667 184.125 72.3833 183.759 67.85C183.725 67.1167 183.692 66.3167 183.659 65.45C183.659 64.5833 183.675 63.8 183.709 63.1C183.909 60.5667 184.425 58.35 185.259 56.45C186.125 54.55 187.459 52.85 189.259 51.35C191.059 49.85 193.475 48.4167 196.509 47.05C198.109 46.3167 199.709 45.65 201.309 45.05C202.942 44.4167 204.592 43.8333 206.259 43.3V33.05C206.259 31.15 205.892 29.7333 205.159 28.8C204.425 27.8667 203.025 27.4 200.959 27.4C199.192 27.4 197.909 27.8 197.109 28.6C196.342 29.3667 195.909 30.7333 195.809 32.7C195.775 33.3333 195.742 34.2167 195.709 35.35C195.709 36.4833 195.709 37.65 195.709 38.85C195.742 40.0167 195.775 40.9833 195.809 41.75H185.309C185.275 40.9167 185.242 39.7 185.209 38.1C185.175 36.5 185.175 35.0833 185.209 33.85C185.342 30.4167 185.942 27.6167 187.009 25.45C188.075 23.2833 189.759 21.7 192.059 20.7C194.359 19.6667 197.425 19.15 201.259 19.15C205.259 19.15 208.392 19.7167 210.659 20.85C212.959 21.95 214.592 23.7 215.559 26.1C216.525 28.5 217.009 31.6333 217.009 35.5L216.959 80H206.159V74.05H204.659C203.692 76.2833 202.525 77.95 201.159 79.05C199.825 80.15 197.942 80.7 195.509 80.7ZM199.759 72.8C201.259 72.8 202.542 72.3667 203.609 71.5C204.709 70.6333 205.575 69.4333 206.209 67.9V50.8C205.042 51.1667 203.875 51.6 202.709 52.1C201.542 52.5667 200.359 53.2 199.159 54C197.325 55.1 196.092 56.4167 195.459 57.95C194.859 59.45 194.509 61.1667 194.409 63.1C194.375 63.7333 194.359 64.3833 194.359 65.05C194.359 65.7167 194.375 66.3833 194.409 67.05C194.575 68.9167 195.109 70.35 196.009 71.35C196.942 72.3167 198.192 72.8 199.759 72.8ZM240.172 80.85C234.805 80.85 230.972 79.6833 228.672 77.35C226.405 75.0167 225.172 71.1833 224.972 65.85C224.939 64.65 224.922 63.2833 224.922 61.75C224.955 60.2167 225.005 58.9833 225.072 58.05H234.572C234.539 59.9167 234.522 61.6167 234.522 63.15C234.522 64.65 234.539 65.9167 234.572 66.95C234.639 69.05 235.122 70.5167 236.022 71.35C236.922 72.1833 238.305 72.6 240.172 72.6C242.339 72.6 243.889 72.1833 244.822 71.35C245.789 70.5167 246.289 69.05 246.322 66.95C246.322 66.05 246.322 65.3833 246.322 64.95C246.322 64.4833 246.322 64.05 246.322 63.65C246.355 63.2167 246.355 62.5833 246.322 61.75C246.322 60.0167 246.055 58.65 245.522 57.65C244.989 56.6167 244.005 55.8833 242.572 55.45L236.672 53.65C234.039 52.8167 231.839 51.8 230.072 50.6C228.305 49.3667 226.972 47.7833 226.072 45.85C225.205 43.9167 224.755 41.4833 224.722 38.55C224.722 37.8167 224.722 37.1167 224.722 36.45C224.722 35.7833 224.739 35.0833 224.772 34.35C224.805 28.9167 225.989 25.0333 228.322 22.7C230.689 20.3333 234.822 19.15 240.722 19.15C246.155 19.15 249.972 20.3 252.172 22.6C254.405 24.8667 255.639 28.6333 255.872 33.9C255.905 35.1 255.905 36.4833 255.872 38.05C255.872 39.5833 255.839 40.8167 255.772 41.75H245.922C245.955 40.9167 245.972 39.9167 245.972 38.75C246.005 37.5833 246.005 36.45 245.972 35.35C245.972 34.25 245.955 33.3667 245.922 32.7C245.855 30.7333 245.439 29.3667 244.672 28.6C243.939 27.8 242.622 27.4 240.722 27.4C238.722 27.4 237.339 27.8 236.572 28.6C235.805 29.3667 235.389 30.7333 235.322 32.7C235.289 33.6667 235.255 34.45 235.222 35.05C235.189 35.6167 235.189 36.5 235.222 37.7C235.222 39.5667 235.455 41.1 235.922 42.3C236.389 43.5 237.489 44.3667 239.222 44.9L244.522 46.35C248.489 47.35 251.455 48.9833 253.422 51.25C255.389 53.4833 256.372 56.8 256.372 61.2C256.372 61.9667 256.355 62.7833 256.322 63.65C256.322 64.5167 256.305 65.35 256.272 66.15C256.239 71.3833 254.989 75.15 252.522 77.45C250.089 79.7167 245.972 80.85 240.172 80.85ZM269.36 100.7C268.36 100.7 267.21 100.633 265.91 100.5C264.61 100.4 263.443 100.267 262.41 100.1V91.95C263.277 92.0167 264.393 92.0833 265.76 92.15C267.16 92.2167 268.343 92.25 269.31 92.25C271.877 92.25 273.627 91.8167 274.56 90.95C275.527 90.1167 276.143 88.65 276.41 86.55L277.26 80H270.81L261.31 20H272.31L275.36 48.2L277.96 71.9H281.01L282.86 48.2L285.51 20H296.46L287.21 85.75C286.71 89.2833 285.827 92.15 284.56 94.35C283.327 96.55 281.493 98.15 279.06 99.15C276.627 100.183 273.393 100.7 269.36 100.7Z" fill="#AA4586"/>
</svg>
